<svg width="16" height="16" viewBox="0 0 16 16" fill="none" xmlns="http://www.w3.org/2000/svg">
<path d="M8 8.5C9.38071 8.5 10.5 7.38071 10.5 6C10.5 4.61929 9.38071 3.5 8 3.5C6.61929 3.5 5.5 4.61929 5.5 6C5.5 7.38071 6.61929 8.5 8 8.5Z" stroke="#445984" stroke-opacity="0.65" stroke-linecap="round" stroke-linejoin="round"/>
<path d="M12.9531 13.6211C12.5059 12.6867 11.8036 11.8979 10.9272 11.3457C10.0507 10.7935 9.03599 10.5005 8.00012 10.5005C6.96425 10.5005 5.94951 10.7935 5.07308 11.3457C4.19665 11.8979 3.4943 12.6867 3.04712 13.6211" stroke="#445984" stroke-opacity="0.65" stroke-linecap="round" stroke-linejoin="round"/>
<path d="M8 15.5C12.1421 15.5 15.5 12.1421 15.5 8C15.5 3.85786 12.1421 0.5 8 0.5C3.85786 0.5 0.5 3.85786 0.5 8C0.5 12.1421 3.85786 15.5 8 15.5Z" stroke="#445984" stroke-opacity="0.65" stroke-linecap="round" stroke-linejoin="round"/>
</svg>
