<svg
    xmlns="http://www.w3.org/2000/svg"
    viewBox="0 0 136 136"
    id="vector">
    <path
        id="path"
        d="M 68 0 C 49.972 0 32.664 7.169 19.917 19.917 C 7.169 32.664 0 49.972 0 68 C 0 86.028 7.169 103.336 19.917 116.083 C 32.664 128.831 49.972 136 68 136 C 86.028 136 103.336 128.831 116.083 116.083 C 128.831 103.336 136 86.028 136 68 C 136 49.972 128.831 32.664 116.083 19.917 C 103.336 7.169 86.028 0 68 0 Z"
        fill="#00d23a"
        fill-opacity="0.6"
        stroke-width="1"/>
    <path
        id="path_1"
        d="M 56.518 104.746 C 56.28 104.746 56.044 104.699 55.824 104.608 C 55.604 104.517 55.404 104.384 55.236 104.215 L 32.205 81.183 L 34.768 78.621 L 56.327 100.18 L 100.872 41.188 L 103.764 43.371 L 57.968 104.021 C 57.812 104.23 57.612 104.404 57.383 104.529 C 57.153 104.654 56.9 104.728 56.639 104.746 L 56.518 104.746 Z"
        fill="#ffffff"
        stroke-width="1"/>
</svg>
