<svg width="16" height="16" viewBox="0 0 16 16" fill="none" xmlns="http://www.w3.org/2000/svg">
<path d="M13.5 15.5H2.5C1.948 15.5 1.5 15.052 1.5 14.5V7.5C1.5 6.948 1.948 6.5 2.5 6.5H13.5C14.052 6.5 14.5 6.948 14.5 7.5V14.5C14.5 15.052 14.052 15.5 13.5 15.5Z" stroke="#445984" stroke-opacity="0.65" stroke-miterlimit="10" stroke-linecap="round" stroke-linejoin="round"/>
<path d="M4.5 6.5V4C4.5 2.067 6.067 0.5 8 0.5C9.933 0.5 11.5 2.067 11.5 4V6.5" stroke="#445984" stroke-opacity="0.65" stroke-miterlimit="10" stroke-linecap="round" stroke-linejoin="round"/>
<path d="M8 12.5C8.82843 12.5 9.5 11.8284 9.5 11C9.5 10.1716 8.82843 9.5 8 9.5C7.17157 9.5 6.5 10.1716 6.5 11C6.5 11.8284 7.17157 12.5 8 12.5Z" stroke="#445984" stroke-opacity="0.65" stroke-miterlimit="10" stroke-linecap="round" stroke-linejoin="round"/>
</svg>
