<svg width="58" height="58" viewBox="0 0 58 58" fill="none" xmlns="http://www.w3.org/2000/svg">
<path d="M29 0C23.2644 0 17.6575 1.70082 12.8885 4.88738C8.11945 8.07394 4.40245 12.6031 2.20751 17.9022C0.0125654 23.2012 -0.561732 29.0322 0.55724 34.6576C1.67621 40.2831 4.43819 45.4504 8.49392 49.5061C12.5496 53.5618 17.7169 56.3238 23.3424 57.4428C28.9678 58.5617 34.7988 57.9874 40.0978 55.7925C45.3969 53.5976 49.9261 49.8806 53.1126 45.1115C56.2992 40.3425 58 34.7357 58 29C57.9915 21.3113 54.9335 13.94 49.4968 8.50326C44.06 3.06654 36.6887 0.00847005 29 0ZM41.5 23C42.1922 23 42.8689 23.2053 43.4445 23.5899C44.0201 23.9744 44.4687 24.5211 44.7336 25.1606C44.9985 25.8001 45.0678 26.5039 44.9328 27.1828C44.7977 27.8617 44.4644 28.4854 43.9749 28.9749C43.4854 29.4644 42.8618 29.7977 42.1828 29.9327C41.5039 30.0678 40.8002 29.9985 40.1606 29.7336C39.5211 29.4687 38.9745 29.0201 38.5899 28.4445C38.2053 27.8689 38 27.1922 38 26.5C38 25.5717 38.3688 24.6815 39.0251 24.0251C39.6815 23.3687 40.5718 23 41.5 23ZM13 26.5C13 25.8078 13.2053 25.1311 13.5899 24.5555C13.9745 23.9799 14.5211 23.5313 15.1606 23.2664C15.8002 23.0015 16.5039 22.9322 17.1828 23.0673C17.8618 23.2023 18.4854 23.5356 18.9749 24.0251C19.4644 24.5146 19.7977 25.1383 19.9328 25.8172C20.0678 26.4961 19.9985 27.1999 19.7336 27.8394C19.4687 28.4789 19.0201 29.0256 18.4445 29.4101C17.8689 29.7947 17.1922 30 16.5 30C15.5718 30 14.6815 29.6313 14.0251 28.9749C13.3688 28.3185 13 27.4283 13 26.5ZM34.909 40.505C34.8545 40.6246 34.777 40.7324 34.6808 40.822C34.5847 40.9117 34.4718 40.9815 34.3486 41.0274C34.2255 41.0734 34.0945 41.0947 33.9631 41.09C33.8317 41.0852 33.7026 41.0547 33.583 41C32.146 40.338 30.5822 39.9968 29 40C27.0695 40.004 25.1738 40.5139 23.5019 41.4789C21.8299 42.4439 20.4401 43.8304 19.471 45.5C19.4076 45.6179 19.3211 45.7218 19.2168 45.8057C19.1124 45.8895 18.9923 45.9515 18.8635 45.9881C18.7348 46.0247 18.6 46.035 18.4671 46.0185C18.3343 46.002 18.2061 45.959 18.0902 45.892C17.9743 45.8251 17.873 45.7355 17.7923 45.6287C17.7117 45.5218 17.6533 45.3999 17.6206 45.2701C17.588 45.1403 17.5817 45.0052 17.6022 44.8729C17.6227 44.7407 17.6696 44.6138 17.74 44.5C18.8847 42.5266 20.5268 40.8879 22.5026 39.7474C24.4784 38.6068 26.7187 38.0043 29 38C30.8699 37.9957 32.7183 38.3983 34.417 39.18C34.6579 39.2906 34.845 39.4922 34.9372 39.7407C35.0295 39.9891 35.0193 40.264 34.909 40.505ZM42 48C40.9391 48 39.9217 47.5786 39.1716 46.8284C38.4214 46.0783 38 45.0609 38 44C38 41 42 34 42 34C42 34 46 41 46 44C46 45.0609 45.5786 46.0783 44.8284 46.8284C44.0783 47.5786 43.0609 48 42 48Z" fill="#E2E4F2"/>
</svg>
